<svg width="82" height="60" viewBox="0 0 82 60" fill="#000" xmlns="http://www.w3.org/2000/svg">
<path d="M37.3434 0.0536769L12.4231 42.5322H3.32522C-0.78861 41.5794 -0.234825 35.5186 0.556296 32.6073L17.5654 4.81762C20.097 0.371274 24.1581 -0.210987 25.8722 0.0536769H37.3434Z" fill="#EDF2F4"/>
<path d="M30.2233 15.5365L24.6855 24.2704L42.0902 54.8391C44.9382 58.6502 48.0236 59.8677 49.2102 60H62.6593L39.7168 19.9034C37.1852 15.1395 32.333 15.0072 30.2233 15.5365Z" fill="#EDF2F4"/>
<path d="M34.1789 44.5172H3.32522L8.86308 54.8391C10.4453 57.6974 13.4779 59.4707 14.7965 60H34.1789C38.9257 57.7768 39.0575 53.2511 38.5301 51.2661L34.1789 44.5172Z" fill="#EDF2F4"/>
<path d="M42.0902 21.4914L47.2324 30.6223H68.5927L72.9439 21.4914C72.311 17.9979 68.4609 16.0658 66.6149 15.5365H48.4191C45.2546 15.8541 42.8813 19.6388 42.0902 21.4914Z" fill="#EDF2F4"/>
<path d="M74.5261 23.0794L59.0993 50.4721L63.4504 58.412C66.9314 60.9528 70.7024 58.9413 72.1527 57.618L80.8551 43.3262C82.4373 39.515 82.0418 36.7096 81.6462 35.7833L74.5261 23.0794Z" fill="#EDF2F4"/>
</svg>
